<svg width="210" height="167" viewBox="0 0 210 167" fill="none" xmlns="http://www.w3.org/2000/svg">
<path d="M128 0.0673828C133.383 0.354101 138.686 1.56389 143.678 3.65332C149.441 6.06555 154.677 9.6014 159.088 14.0586C163.499 18.5157 166.997 23.8074 169.384 29.6309C171.771 35.4545 173 41.6966 173 48C173 54.3035 171.771 60.5455 169.384 66.3691C166.997 72.1926 163.499 77.4843 159.088 81.9414C154.677 86.3986 149.441 89.9345 143.678 92.3467C143.413 92.4573 143.147 92.5623 142.881 92.668L174.911 148.146L175 148L186.259 166.75H163.741L163.757 166.723L163.713 166.749L122.866 96H90V166H71V0H128V0.0673828ZM58 134.216L58.0068 135.083C58.1001 140.865 59.0558 146.302 58 151.143V166H39V165.909C37.796 165.975 36.4754 166 35 166C25.7174 166 16.8147 162.313 10.251 155.749C3.92328 149.421 0.270331 140.92 0.015625 132H0V121H21V131C21 134.713 22.4751 138.274 25.1006 140.899C27.7261 143.525 31.287 145 35 145C36.3671 145 37.7132 144.799 39 144.415V20H19V1H58V134.216ZM122 103.865L132.325 121.75H122V166H103V103H122V103.865ZM181.5 32.5L186.03 34.3115L186.038 34.2998C186.066 34.3157 186.094 34.3326 186.122 34.3486L186.5 34.5L186.887 34.7959C195.32 39.8411 201.924 47.4599 205.718 56.5439C209.638 65.9306 210.335 76.3522 207.702 86.1777C205.069 96.0033 199.254 104.679 191.165 110.848C183.156 116.956 173.366 120.261 163.299 120.268L163.189 120.459L163.079 120.269C163.052 120.268 163.026 120.27 162.999 120.27V120.13L152.04 101.148H164.268C169.807 100.943 175.159 99.0299 179.581 95.6572C184.31 92.0505 187.71 86.9773 189.25 81.2324C190.79 75.4876 190.382 69.3945 188.09 63.9062C185.798 58.4178 181.751 53.8433 176.583 50.8994L176.694 50.7021L176.539 50.7852L177 31.5L181.5 32.5ZM90 77H125.5V76.7998C129.243 76.7998 132.948 76.0547 136.406 74.6074C139.864 73.1601 143.006 71.0386 145.652 68.3643C148.299 65.69 150.398 62.5155 151.83 59.0215C153.262 55.5273 154 51.7821 154 48C154 44.2179 153.263 40.4727 151.831 36.9785C150.399 33.4844 148.299 30.31 145.652 27.6357C143.006 24.9614 139.864 22.8399 136.406 21.3926C132.948 19.9453 129.243 19.2002 125.5 19.2002V19H90V77ZM132 27.1064C133.809 27.2979 135.584 27.7477 137.271 28.4463C139.576 29.4011 141.67 30.8011 143.435 32.5654C145.199 34.3297 146.599 36.4243 147.554 38.7295C148.508 41.0346 149 43.505 149 46H122V72H103V27H132V27.1064Z" fill="#D9D9D9"/>
</svg>
